<svg version="1.2" xmlns="http://www.w3.org/2000/svg" viewBox="0 0 1024 1024" width="1024" height="1024">
	<title>ChatGPT Image 18 sept 2025, 01_18_08 p</title>
	<style>
		.s0 { fill: none;stroke: #f9a41f;stroke-miterlimit:100;stroke-width: 64 } 
		.s1 { fill: #fefbef } 
		.s2 { fill: #0d8382 } 
		.s3 { fill: #6faa2f } 
		.s4 { fill: #202724 } 
		.s5 { fill: #ffffff } 
	</style>
	<g>
	</g>
	<g>
		<path id="Shape 2" fill-rule="evenodd" class="s0" d="m512.5 934c-233.09 0-421.5-188.41-421.5-421.5 0-233.09 188.41-421.5 421.5-421.5 233.09 0 421.5 188.41 421.5 421.5 0 233.09-188.41 421.5-421.5 421.5z"/>
	</g>
	<g>
		<path fill-rule="evenodd" class="s1" d="m482.5 119.5q239.36-8.96 367.5 191 91.45 158.95 33 333-67.21 175.21-243.5 239.5-190.19 59.48-356-50-148.67-109.53-166.5-294.5-8.07-189.02 128.5-318.5 101.79-88.88 237-100.5z"/>
	</g>
	<g>
		<path id="Shape 3" fill-rule="evenodd" class="s2" d="m416.5 381c-46.73 0-84.5-37.77-84.5-84.5 0-46.73 37.77-84.5 84.5-84.5 46.73 0 84.5 37.77 84.5 84.5 0 46.73-37.77 84.5-84.5 84.5z"/>
	</g>
	<g>
		<path fill-rule="evenodd" class="s2" d="m671.5 268.5q30.2-3.55 24.5 26-7.52 20.01-19 38-20.32 31.9-42.5 62.5-33.19 8.42-65 21-21.31 9.88-14.5 32.5 6.31 13.06 18.5 21-71.3 87.66-81.5 201-3.56 50.95-5 102-15.6 45.31-33 90-1.59 0.9-3.5 1-77.92-14.22-144-57.5-1.61-1.11-2-3 21.53-91.01 20.5-184.5-6.45-94.34-54-176-28.66-44.8-52-93-6.99-15.47-11-32-4.47-26.01 21.5-24.5 9.08 2.66 15.5 9.5 33.14 44.14 76.5 78.5 96.27 67.03 200 11 54.89-32.48 100-78 17.04-16.54 33-34 7.95-6.72 17-11.5z"/>
	</g>
	<g>
		<path fill-rule="evenodd" class="s3" d="m479.5 866.5q33.62-43.37 76-78.5 34.77-27.14 69-55 18.21-16.71 35.5-34.5 29.84-33.17 40-77 7.82-42.95-13-81 17.69 46.11-2 92-25.54 49.76-70.5 83.5-43.73 30.62-89 59-15.74 11.5-31 23.5 5.78-21.11 12.5-42 7.15-56.75 25-111 22.66-59.61 67-105 13.5-13.5 27-27 12.7-14.11 11-33-2.61-10.49-11.5-16.5-21.44-9.9-43-19.5-1.62-1.3-0.5-3 34.06-12.85 69.5-21.5 30.43-62.97 99-48 46.84 16.87 54.5 66.5 0.25 6.75 0.5 13.5c-3.36 16.77-7.61 30.77-5 54 20.39 128.27 0.14 185.77-71.99 241.61-60.46 47.21-155.01 48.39-155.01 48.39 0 0-37.8 44.26-51 70.5q-21.74 1.99-43 0z"/>
	</g>
	<g>
		<path id="Shape 1" fill-rule="evenodd" class="s4" d="m708 453.17c-9.4 0-17-7.86-17-17.58 0-9.73 7.6-17.59 17-17.59 9.4 0 17 7.86 17 17.59 0 9.72-7.6 17.58-17 17.58z"/>
	</g>
	<g>
		<path fill-rule="evenodd" class="s5" d="m479.5 866.5q-5 0-10 0 12.53-34.09 25-68 15.26-12 31-23.5 45.27-28.38 89-59 44.96-33.74 70.5-83.5 19.69-45.89 2-92 20.82 38.05 13 81-10.16 43.83-40 77-17.29 17.79-35.5 34.5-34.23 27.86-69 55-42.38 35.13-76 78.5z"/>
		<path id="Layer copy 2" fill-rule="evenodd" class="s4" d="m479.5 866.5q-5 0-10 0 12.53-34.09 25-68 15.26-12 31-23.5 45.27-28.38 89-59 44.96-33.74 70.5-83.5c19.75-50.43-11.31-91.88 2-92 14.25 23.16 18.42 54.57 13 81q-10.16 43.83-40 77-17.29 17.79-35.5 34.5-34.23 27.86-69 55-42.38 35.13-76 78.5z"/>
	</g>
</svg>